# xmcd
#
# Track frame offsets:
#	150
#	14480
#	28683
#	37882
#	49499
#	59509
#	69074
#	80949
#	92131
#	104996
#	119642
#	130402
#	142328
#	152630
#	166413
#
# Disc length: 2329 seconds
#
# Revision: 1
# Processed by: cddbd v1.5.1PL0 Copyright (c) Steve Scherf et al.
# Submitted via: audiograbber 1.83.01
#
DISCID=e309170f
DTITLE=Willie Nelson - He Came From Texas
DYEAR=1900
DGENRE=Country
TTITLE0=Face Of A Fighter
TTITLE1=Will You Remember Me
TTITLE2=Building Heartaches
TTITLE3=I'm Gonna Lose A Lot Of Teardrops
TTITLE4=Let's Pretend
TTITLE5=Healing Hands Of Time
TTITLE6=End Of Understanding
TTITLE7=Some Other Time
TTITLE8=She's Not For You
TTITLE9=What Can You Do To Me Now
TTITLE10=Suffering In Silence
TTITLE11=I'll Stay Around
TTITLE12=Pride Wins Again
TTITLE13=The Last Letter
TTITLE14=You Would Cross The Street To Say Goodbye
EXTD=
EXTT0=
EXTT1=
EXTT2=
EXTT3=
EXTT4=
EXTT5=
EXTT6=
EXTT7=
EXTT8=
EXTT9=
EXTT10=
EXTT11=
EXTT12=
EXTT13=
EXTT14=
PLAYORDER=
